,
.   http://www.scenetime.com/signup.php  ---&gt;  Hottest scene tracker on the net !!!  

    Join Now   http://www.scenetime.com/signup.php

    seed back for speed


 



...................................NFO:.................................................[IMG]http://img18.imageshack.us/img18/1032/30932407661254688754.jpg[/IMG]


[color=blue][size=5][b]Boy.Toy.2011.DVDRip.XVID.AC3.HQ.Hive-CM8[/b][/size][/color]


[b]Thx Hive

CM8 Doing It Right The First Time :D


Source: DVD-R

Encode:
DVD had great quality, also both brothers of Chris Farley are playing in this movie,
looks very promising and funny. Added brightness, sharpness, rgb and denoise.
got very nice
enjoy

Video: 720x400 @bitrate 1800 2pass
Audio: English AC3 5.1 @448
Sample: Yes, included[/b]
 
http://www.imdb.com/title/tt1051213/


General
Complete name                  : Boy.Toy.2011.DVDRip.XVID.AC3.HQ.Hive-CM8.avi
Format                         : AVI
Format/Info                    : Audio Video Interleave
File size                      : 1.43 GiB
Duration                       : 1h 30mn
Overall bit rate               : 2 256 Kbps
Writing application            : Nandub v1.0rc2
Writing library                : Nandub build 1853/release

Video
ID                             : 0
Format                         : MPEG-4 Visual
Format profile                 : Advanced Simple@L5
Format settings, BVOP          : 2
Format settings, QPel          : Yes
Format settings, GMC           : No warppoints
Format settings, Matrix        : Default (H.263)
Muxing mode                    : Packed bitstream
Codec ID                       : XVID
Codec ID/Hint                  : XviD
Duration                       : 1h 30mn
Bit rate                       : 1 799 Kbps
Width                          : 720 pixels
Height                         : 400 pixels
Display aspect ratio           : 16:9
Frame rate                     : 23.976 fps
Color space                    : YUV
Chroma subsampling             : 4:2:0
Bit depth                      : 8 bits
Scan type                      : Progressive
Compression mode               : Lossy
Bits/(Pixel*Frame)             : 0.261
Stream size                    : 1.14 GiB (80%)
Writing library                : XviD 1.2.1 (UTC 2008-12-04)

Audio
ID                             : 1
Format                         : AC-3
Format/Info                    : Audio Coding 3
Mode extension                 : CM (complete main)
Codec ID                       : 2000
Duration                       : 1h 30mn
Bit rate mode                  : Constant
Bit rate                       : 448 Kbps
Channel(s)                     : 6 channels
Channel positions              : Front: L C R, Side: L R, LFE
Sampling rate                  : 48.0 KHz
Bit depth                      : 16 bits
Compression mode               : Lossy
Stream size                    : 290 MiB (20%)
Alignment                      : Split accross interleaves
Interleave, duration           : 42 ms (1.00 video frame)
Interleave, preload duration   : 500 ms


Plot:
An unsuccessful underwear model gears up for the role of his life.


Cast:
Mircea Monroe     ...    Norah
Elizabeth Daily   ...    Helen
Simon Rex         ...    Clive
Morgan Fairchild  ...    Barbra


[img]http://img9.imageshack.us/img9/7267/bobobobobobo.png[/img]
[img]http://img85.imageshack.us/img85/606/boboo.png[/img]
[img]http://img535.imageshack.us/img535/7122/59510736.png[/img]
[img]http://img521.imageshack.us/img521/4493/bobobobo.png[/img]
[img]http://img838.imageshack.us/img838/2310/bobobobobox.png[/img]
[img]http://img27.imageshack.us/img27/7578/bobobobobobobo.png[/img]
[img]http://img338.imageshack.us/img338/7827/bobobobobobobobo.png[/img]



Greetz

ViSiON,SPK,SANTi,3LT0N,FUSiON,YanKeeS,MAGNET,T0XiC,LKRG,FANTASIA-PLAY,FANTASIA-M,FLAWL3SS,
WBZ,BHRG,NOVA,D2U,THC,Vik,Rapeseed,SAFC,goldadvance,MEMORY100,KaN1vE,Unevano,Pinnz,Wayne,
Mr Hive,and all P2P groups
Great Work Guys :D

LOOKING FOR ANYTHING YOU WANT TO LOOK AND SOUND BETTER

CM8@hushmail.com